<svg id="图层_1" data-name="图层 1" xmlns="http://www.w3.org/2000/svg" xmlns:xlink="http://www.w3.org/1999/xlink" viewBox="0 0 32.72 32.14"><defs><style>.cls-1{opacity:0.85;}.cls-2{fill:#2e16bf;}.cls-2,.cls-3{stroke:#000;stroke-miterlimit:10;stroke-width:0.25px;}.cls-3{fill:#1b1464;}.cls-4{fill:url(#未命名的渐变_22);}.cls-5{fill:#ff0;}</style><radialGradient id="未命名的渐变_22" cx="22.5" cy="18" r="2.34" gradientTransform="translate(0.35 9.09) scale(1 0.5)" gradientUnits="userSpaceOnUse"><stop offset="0" stop-color="#fff"/><stop offset="0.03" stop-color="#f9f9f9"/><stop offset="0.07" stop-color="#eaeaea"/><stop offset="0.11" stop-color="#cfcfcf"/><stop offset="0.16" stop-color="#ababab"/><stop offset="0.2" stop-color="#7c7c7c"/><stop offset="0.25" stop-color="#434343"/><stop offset="0.31"/><stop offset="0.67" stop-color="#777784"/><stop offset="0.94" stop-color="#362c29"/></radialGradient></defs><title>未标题-1</title><g class="cls-1"><path d="M11.56,5.71C3.48,8.17.36,20.16,8.25,25.11c6.08,3.81,19.94,1.54,21.29-6.9.56-3.52-2.27-7.34-4.71-9.59-3.55-3.26-8.54-2.44-13-1.53-8.41,1.74-10.3,12.77-4,18.39S27.43,28,30.18,19.87C33.2,11,22.78,4.22,15,5.15c-9.76,1.16-12.76,13.74-7.08,21s20,3.26,23.39-4.63C35.18,12.63,23.86,3,16,2.21,4.45,1.1.56,10.9,3,20.72s12,11.87,20.46,7.61c4.17-2.09,8.59-5.82,8.91-10.81.29-4.58-2.68-9.26-5.88-12.29C19.36-1.53,7.91-2.85,3.26,7.18-.9,16.16,2,27.55,13.11,28.36c8.76.65,22.13-6.52,18.13-16.94C27.82,2.49,17.33-.36,9.31,4.3.07,9.65-2.81,23.39,7.13,29.67c8,5,23,2,24.88-8.58C34,9.64,20.92.39,10.61,4,5.72,5.66,1.37,9.81.06,14.88c-1.49,5.84,1.28,9.77,5.46,13.51.36.32.89-.21.53-.53C3.11,25.23.41,22.45.38,18.26c0-4.85,3-9.26,7-11.81A15.49,15.49,0,0,1,27.24,9.06c5.93,6.59,5.13,15.82-2.84,20.22C17.71,33,8,32,3.55,25.21c-10-15.19,16-31.61,25.71-16,6.13,9.89-5,18.08-14.3,18.4C4.13,28,.08,18.23,3.32,9c7.64-21.61,40.92,4,22.46,17-5.7,4-15,6-19.76-.38C.9,18.92,1.52,5.55,11,3.26c7.36-1.78,14.76,2.59,18.31,8.94,2.74,4.92,2.11,9.92-2.66,13.31-4,2.85-10.4,5.29-15.14,2.74-7.09-3.8-7.45-16.6-.85-20.74,8-5,23.91,3.06,18.17,13.49-4.47,8.15-20.25,9.47-23.22-.56-1.68-5.66.1-11.06,6.32-12.55,2.79-.66,7.82-1.49,10.55-.14C26.43,9.7,30.19,16.09,28,20.24c-1.45,2.71-5.23,4.57-8.07,5.42C14.57,27.23,7.4,25.85,5.29,20S5.81,8.24,11.76,6.43a.37.37,0,0,0-.2-.72Z" transform="translate(0.35 0.09)"/></g><rect class="cls-2" x="18.85" y="15.59" width="8" height="5"/><polygon class="cls-3" points="27.86 23.09 17.37 23.23 18.87 20.77 26.86 20.63 27.86 23.09"/><rect class="cls-4" x="20.27" y="16.02" width="5.15" height="4.15" rx="0.08" ry="0.08"/><path class="cls-5" d="M25,16v4H20V16h5m0-.15H20a.15.15,0,0,0-.15.15v4a.15.15,0,0,0,.15.15h5a.15.15,0,0,0,.15-.15V16a.15.15,0,0,0-.15-.15Z" transform="translate(0.35 0.09)"/></svg>